<?xml version="1.0" encoding="UTF-8" standalone="no"?>
<!-- Generator: Adobe Illustrator 19.0.0, SVG Export Plug-In . SVG Version: 6.00 Build 0)  -->

<svg
   xmlns:dc="http://purl.org/dc/elements/1.1/"
   xmlns:cc="http://creativecommons.org/ns#"
   xmlns:rdf="http://www.w3.org/1999/02/22-rdf-syntax-ns#"
   xmlns:svg="http://www.w3.org/2000/svg"
   xmlns="http://www.w3.org/2000/svg"
   xmlns:sodipodi="http://sodipodi.sourceforge.net/DTD/sodipodi-0.dtd"
   xmlns:inkscape="http://www.inkscape.org/namespaces/inkscape"
   version="1.1"
   id="Capa_1"
   x="0px"
   y="0px"
   viewBox="0 0 512 512"
   style="enable-background:new 0 0 512 512;"
   xml:space="preserve"
   sodipodi:docname="annotation.svg"
   inkscape:version="0.92.3 (2405546, 2018-03-11)"><metadata
   id="metadata94"><rdf:RDF><cc:Work
       rdf:about=""><dc:format>image/svg+xml</dc:format><dc:type
         rdf:resource="http://purl.org/dc/dcmitype/StillImage" /><dc:title></dc:title></cc:Work></rdf:RDF></metadata><defs
   id="defs92">
	

		
	
			
			
			
			
			
		</defs><sodipodi:namedview
   pagecolor="#ffffff"
   bordercolor="#666666"
   borderopacity="1"
   objecttolerance="10"
   gridtolerance="10"
   guidetolerance="10"
   inkscape:pageopacity="0"
   inkscape:pageshadow="2"
   inkscape:window-width="1366"
   inkscape:window-height="705"
   id="namedview90"
   showgrid="false"
   inkscape:zoom="0.74025241"
   inkscape:cx="1.0293126"
   inkscape:cy="155.21494"
   inkscape:window-x="-8"
   inkscape:window-y="-8"
   inkscape:window-maximized="1"
   inkscape:current-layer="Capa_1" />

<g
   id="g59">
</g>
<g
   id="g61">
</g>
<g
   id="g63">
</g>
<g
   id="g65">
</g>
<g
   id="g67">
</g>
<g
   id="g69">
</g>
<g
   id="g71">
</g>
<g
   id="g73">
</g>
<g
   id="g75">
</g>
<g
   id="g77">
</g>
<g
   id="g79">
</g>
<g
   id="g81">
</g>
<g
   id="g83">
</g>
<g
   id="g85">
</g>
<g
   id="g87">
</g>
<path
   id="path3962"
   style="stroke-width:1.3078059;fill:#ffffff"
   d="M 397.00432,122.03259 H 125.39277 c -14.56418,0 -26.370053,11.61508 -26.370053,25.94391 0,14.32883 11.805873,25.94391 26.370053,25.94391 h 271.61155 c 14.56419,0 26.37006,-11.61508 26.37006,-25.94391 0,-14.32883 -11.80587,-25.94391 -26.37006,-25.94391 z M 125.39277,329.58393 c -14.56418,0 -26.370053,11.61508 -26.370053,25.94391 0,14.32883 11.805873,25.94392 26.370053,25.94392 h 164.95919 c 14.56419,0 26.37006,-11.61509 26.37006,-25.94392 0,-14.32883 -11.80587,-25.94391 -26.37006,-25.94391 z m 297.98161,-77.83176 c 0,-14.32883 -11.80587,-25.94392 -26.37006,-25.94392 H 125.39277 c -14.56418,0 -26.370053,11.61509 -26.370053,25.94392 0,14.32883 11.805873,25.94392 26.370053,25.94392 h 271.61155 c 14.56419,0 26.37006,-11.61509 26.37006,-25.94392 z" /><g
   id="g3970"
   transform="translate(-591.02101,196.56082)">
</g><g
   id="g3972"
   transform="translate(-591.02101,196.56082)">
</g><g
   id="g3974"
   transform="translate(-591.02101,196.56082)">
</g><g
   id="g3976"
   transform="translate(-591.02101,196.56082)">
</g><g
   id="g3978"
   transform="translate(-591.02101,196.56082)">
</g><g
   id="g3980"
   transform="translate(-591.02101,196.56082)">
</g><g
   id="g3982"
   transform="translate(-591.02101,196.56082)">
</g><g
   id="g3984"
   transform="translate(-591.02101,196.56082)">
</g><g
   id="g3986"
   transform="translate(-591.02101,196.56082)">
</g><g
   id="g3988"
   transform="translate(-591.02101,196.56082)">
</g><g
   id="g3990"
   transform="translate(-591.02101,196.56082)">
</g><g
   id="g3992"
   transform="translate(-591.02101,196.56082)">
</g><g
   id="g3994"
   transform="translate(-591.02101,196.56082)">
</g><g
   id="g3996"
   transform="translate(-591.02101,196.56082)">
</g><g
   id="g3998"
   transform="translate(-591.02101,196.56082)">
</g></svg>