<?xml version="1.0" encoding="UTF-8" standalone="no"?>
<!-- Generator: Adobe Illustrator 19.0.0, SVG Export Plug-In . SVG Version: 6.00 Build 0)  -->

<svg
   xmlns:dc="http://purl.org/dc/elements/1.1/"
   xmlns:cc="http://creativecommons.org/ns#"
   xmlns:rdf="http://www.w3.org/1999/02/22-rdf-syntax-ns#"
   xmlns:svg="http://www.w3.org/2000/svg"
   xmlns="http://www.w3.org/2000/svg"
   xmlns:sodipodi="http://sodipodi.sourceforge.net/DTD/sodipodi-0.dtd"
   xmlns:inkscape="http://www.inkscape.org/namespaces/inkscape"
   version="1.1"
   id="Capa_1"
   x="0px"
   y="0px"
   viewBox="0 0 512 512"
   style="enable-background:new 0 0 512 512;"
   xml:space="preserve"
   sodipodi:docname="arrow.svg"
   inkscape:version="0.92.3 (2405546, 2018-03-11)"><metadata
   id="metadata94"><rdf:RDF><cc:Work
       rdf:about=""><dc:format>image/svg+xml</dc:format><dc:type
         rdf:resource="http://purl.org/dc/dcmitype/StillImage" /><dc:title></dc:title></cc:Work></rdf:RDF></metadata><defs
   id="defs92" /><sodipodi:namedview
   pagecolor="#ffffff"
   bordercolor="#666666"
   borderopacity="1"
   objecttolerance="10"
   gridtolerance="10"
   guidetolerance="10"
   inkscape:pageopacity="0"
   inkscape:pageshadow="2"
   inkscape:window-width="1366"
   inkscape:window-height="705"
   id="namedview90"
   showgrid="false"
   inkscape:zoom="0.37012621"
   inkscape:cx="268.40914"
   inkscape:cy="618.64658"
   inkscape:window-x="-8"
   inkscape:window-y="-8"
   inkscape:window-maximized="1"
   inkscape:current-layer="Capa_1" />

<g
   id="g59">
</g>
<g
   id="g61">
</g>
<g
   id="g63">
</g>
<g
   id="g65">
</g>
<g
   id="g67">
</g>
<g
   id="g69">
</g>
<g
   id="g71">
</g>
<g
   id="g73">
</g>
<g
   id="g75">
</g>
<g
   id="g77">
</g>
<g
   id="g79">
</g>
<g
   id="g81">
</g>
<g
   id="g83">
</g>
<g
   id="g85">
</g>
<g
   id="g87">
</g>
<g
   id="g3942"
   transform="matrix(-0.73641165,0,0,-0.73641165,444.58087,434.95951)"
   style="fill:#ffffff"><g
     id="g3885"
     style="fill:#ffffff">
	<g
   id="g3883"
   style="fill:#ffffff">
		<path
   id="path3881"
   d="m 464.344,207.418 0.768,0.168 H 135.888 L 239.384,103.862 c 5.068,-5.064 7.848,-11.924 7.848,-19.124 0,-7.2 -2.78,-14.012 -7.848,-19.088 L 223.28,49.538 c -5.064,-5.064 -11.812,-7.864 -19.008,-7.864 -7.2,0 -13.952,2.78 -19.016,7.844 L 7.844,226.914 C 2.76,231.998 -0.02,238.77 0,245.974 c -0.02,7.244 2.76,14.02 7.844,19.096 l 177.412,177.412 c 5.064,5.06 11.812,7.844 19.016,7.844 7.196,0 13.944,-2.788 19.008,-7.844 l 16.104,-16.112 c 5.068,-5.056 7.848,-11.808 7.848,-19.008 0,-7.196 -2.78,-13.592 -7.848,-18.652 L 134.72,284.406 h 329.992 c 14.828,0 27.288,-12.78 27.288,-27.6 v -22.788 c 0,-14.82 -12.828,-26.6 -27.656,-26.6 z"
   inkscape:connector-curvature="0"
   style="fill:#ffffff" />
	</g>
</g><g
     id="g3887"
     style="fill:#ffffff">
</g><g
     id="g3889"
     style="fill:#ffffff">
</g><g
     id="g3891"
     style="fill:#ffffff">
</g><g
     id="g3893"
     style="fill:#ffffff">
</g><g
     id="g3895"
     style="fill:#ffffff">
</g><g
     id="g3897"
     style="fill:#ffffff">
</g><g
     id="g3899"
     style="fill:#ffffff">
</g><g
     id="g3901"
     style="fill:#ffffff">
</g><g
     id="g3903"
     style="fill:#ffffff">
</g><g
     id="g3905"
     style="fill:#ffffff">
</g><g
     id="g3907"
     style="fill:#ffffff">
</g><g
     id="g3909"
     style="fill:#ffffff">
</g><g
     id="g3911"
     style="fill:#ffffff">
</g><g
     id="g3913"
     style="fill:#ffffff">
</g><g
     id="g3915"
     style="fill:#ffffff">
</g></g></svg>