<?xml version="1.0" encoding="UTF-8" standalone="no"?>
<!-- Generator: Adobe Illustrator 19.0.0, SVG Export Plug-In . SVG Version: 6.00 Build 0)  -->

<svg
   xmlns:dc="http://purl.org/dc/elements/1.1/"
   xmlns:cc="http://creativecommons.org/ns#"
   xmlns:rdf="http://www.w3.org/1999/02/22-rdf-syntax-ns#"
   xmlns:svg="http://www.w3.org/2000/svg"
   xmlns="http://www.w3.org/2000/svg"
   xmlns:sodipodi="http://sodipodi.sourceforge.net/DTD/sodipodi-0.dtd"
   xmlns:inkscape="http://www.inkscape.org/namespaces/inkscape"
   version="1.1"
   id="Capa_1"
   x="0px"
   y="0px"
   viewBox="0 0 512 512"
   style="enable-background:new 0 0 512 512;"
   xml:space="preserve"
   sodipodi:docname="extend.svg"
   inkscape:version="0.92.3 (2405546, 2018-03-11)"><metadata
   id="metadata94"><rdf:RDF><cc:Work
       rdf:about=""><dc:format>image/svg+xml</dc:format><dc:type
         rdf:resource="http://purl.org/dc/dcmitype/StillImage" /><dc:title></dc:title></cc:Work></rdf:RDF></metadata><defs
   id="defs92" /><sodipodi:namedview
   pagecolor="#ffffff"
   bordercolor="#666666"
   borderopacity="1"
   objecttolerance="10"
   gridtolerance="10"
   guidetolerance="10"
   inkscape:pageopacity="0"
   inkscape:pageshadow="2"
   inkscape:window-width="1366"
   inkscape:window-height="705"
   id="namedview90"
   showgrid="false"
   inkscape:zoom="0.37012621"
   inkscape:cx="268.40914"
   inkscape:cy="510.57534"
   inkscape:window-x="-8"
   inkscape:window-y="-8"
   inkscape:window-maximized="1"
   inkscape:current-layer="text3946" />

<g
   id="g59">
</g>
<g
   id="g61">
</g>
<g
   id="g63">
</g>
<g
   id="g65">
</g>
<g
   id="g67">
</g>
<g
   id="g69">
</g>
<g
   id="g71">
</g>
<g
   id="g73">
</g>
<g
   id="g75">
</g>
<g
   id="g77">
</g>
<g
   id="g79">
</g>
<g
   id="g81">
</g>
<g
   id="g83">
</g>
<g
   id="g85">
</g>
<g
   id="g87">
</g>
<g
   aria-label="E"
   style="font-style:normal;font-weight:normal;font-size:485.92996216px;line-height:1.25;font-family:sans-serif;letter-spacing:0px;word-spacing:0px;fill:#000000;fill-opacity:1;stroke:none;stroke-width:12.14824963"
   id="text3946"><path
     d="m 212.21411,124.7658 v 127.17698 h 70.7066 q 27.52338,0 36.77693,-8.30447 12.33806,-10.91444 13.76169,-38.43782 h 8.77901 v 111.99167 h -8.77901 q -3.32179,-23.48978 -6.64358,-30.13335 -4.27086,-8.30447 -13.99895,-13.04988 -9.72809,-4.74541 -29.89609,-4.74541 h -70.7066 v 106.05991 q 0,21.35435 1.89816,26.09976 1.89817,4.50814 6.64358,7.35538 4.74541,2.60998 18.03255,2.60998 h 54.57222 q 27.2861,0 39.62417,-3.79633 12.33806,-3.79633 23.72705,-14.94804 14.71077,-14.71077 30.13335,-44.36958 h 9.49082 l -27.76065,80.67196 H 120.6277 v -8.779 h 11.38898 q 11.38899,0 21.59162,-5.45723 7.59265,-3.79632 10.20263,-11.38898 2.84724,-7.59265 2.84724,-31.08243 v -209.0353 q 0,-30.6079 -6.16903,-37.72601 -8.54174,-9.49082 -28.47246,-9.49082 H 120.6277 v -8.77901 h 247.94766 l 3.55906,70.46934 h -9.25355 q -4.98268,-25.38795 -11.15171,-34.87877 -5.93177,-9.49082 -17.79529,-14.4735 -9.49082,-3.55905 -33.45514,-3.55905 z"
     style="font-style:normal;font-variant:normal;font-weight:normal;font-stretch:normal;font-family:serif;-inkscape-font-specification:serif;stroke-width:12.14824963;fill:#ffffff"
     id="path3948" /></g></svg>